<?xml version="1.0" encoding="utf-8"?>
<!-- Generator: Adobe Illustrator 19.2.1, SVG Export Plug-In . SVG Version: 6.00 Build 0)  -->
<svg version="1.1" id="Layer_1" xmlns="http://www.w3.org/2000/svg" xmlns:xlink="http://www.w3.org/1999/xlink" x="0px" y="0px"
	 viewBox="0 0 400 87.1" style="enable-background:new 0 0 400 87.1;" xml:space="preserve">
<style type="text/css">
	.st0{fill:url(#SVGID_1_);}
	.st1{fill:url(#SVGID_2_);}
	.st2{fill:url(#SVGID_3_);}
	.st3{fill:url(#SVGID_4_);}
	.st4{fill:url(#SVGID_5_);}
	.st5{fill:url(#SVGID_6_);}
	.st6{fill:url(#SVGID_7_);}
	.st7{fill:url(#SVGID_8_);}
	.st8{fill:url(#SVGID_9_);}
	.st9{fill:url(#SVGID_10_);}
	.st10{fill:url(#SVGID_11_);}
	.st11{fill:url(#SVGID_12_);}
	.st12{fill:url(#SVGID_13_);}
	.st13{fill:url(#SVGID_14_);}
	.st14{fill:url(#SVGID_15_);}
	.st15{fill:url(#SVGID_16_);}
	.st16{fill:url(#SVGID_17_);}
</style>
<g>
	<g>
		<linearGradient id="SVGID_1_" gradientUnits="userSpaceOnUse" x1="100.8705" y1="67.2499" x2="100.8705" y2="9.9444">
			<stop  offset="0" style="stop-color:#004E61"/>
			<stop  offset="9.815128e-02" style="stop-color:#065163"/>
			<stop  offset="0.2446" style="stop-color:#1D5B66"/>
			<stop  offset="0.4214" style="stop-color:#366A68"/>
			<stop  offset="0.6216" style="stop-color:#568066"/>
			<stop  offset="0.8388" style="stop-color:#82A059"/>
			<stop  offset="1" style="stop-color:#A9BC3C"/>
		</linearGradient>
		<path class="st0" d="M112.9,30.4h-8.3v27.2c0,1.6-0.3,2.7-1,3.5c-0.7,0.8-1.6,1.1-2.7,1.1c-1.1,0-2-0.4-2.7-1.1
			c-0.7-0.8-1.1-1.9-1.1-3.5V30.4h-8.3c-1.3,0-2.3-0.3-2.9-0.9C85.3,29,85,28.3,85,27.3c0-1,0.3-1.7,1-2.3c0.7-0.6,1.6-0.8,2.8-0.8
			h24.1c1.3,0,2.3,0.3,2.9,0.9c0.6,0.6,1,1.3,1,2.3c0,0.9-0.3,1.7-1,2.3C115.2,30.1,114.2,30.4,112.9,30.4z"/>
		<linearGradient id="SVGID_2_" gradientUnits="userSpaceOnUse" x1="122.7595" y1="67.2499" x2="122.7595" y2="9.9444">
			<stop  offset="0" style="stop-color:#004E61"/>
			<stop  offset="9.815128e-02" style="stop-color:#065163"/>
			<stop  offset="0.2446" style="stop-color:#1D5B66"/>
			<stop  offset="0.4214" style="stop-color:#366A68"/>
			<stop  offset="0.6216" style="stop-color:#568066"/>
			<stop  offset="0.8388" style="stop-color:#82A059"/>
			<stop  offset="1" style="stop-color:#A9BC3C"/>
		</linearGradient>
		<path class="st1" d="M119,57.6V28.1c0-1.5,0.3-2.7,1-3.4c0.7-0.8,1.6-1.1,2.7-1.1c1.1,0,2.1,0.4,2.8,1.1c0.7,0.8,1.1,1.9,1.1,3.5
			v29.5c0,1.5-0.4,2.7-1.1,3.5c-0.7,0.8-1.6,1.1-2.8,1.1c-1.1,0-2-0.4-2.7-1.2C119.3,60.3,119,59.2,119,57.6z"/>
		<linearGradient id="SVGID_3_" gradientUnits="userSpaceOnUse" x1="147.6239" y1="67.2499" x2="147.6239" y2="9.9444">
			<stop  offset="0" style="stop-color:#004E61"/>
			<stop  offset="9.815128e-02" style="stop-color:#065163"/>
			<stop  offset="0.2446" style="stop-color:#1D5B66"/>
			<stop  offset="0.4214" style="stop-color:#366A68"/>
			<stop  offset="0.6216" style="stop-color:#568066"/>
			<stop  offset="0.8388" style="stop-color:#82A059"/>
			<stop  offset="1" style="stop-color:#A9BC3C"/>
		</linearGradient>
		<path class="st2" d="M164.3,49.8c0,1.2-0.3,2.5-0.9,3.9c-0.6,1.4-1.5,2.7-2.8,4.1c-1.3,1.3-2.9,2.4-4.8,3.3
			c-2,0.8-4.2,1.3-6.8,1.3c-2,0-3.8-0.2-5.4-0.6c-1.6-0.4-3.1-1-4.4-1.7c-1.3-0.8-2.5-1.8-3.6-3.1c-1-1.2-1.8-2.5-2.5-3.9
			c-0.7-1.5-1.2-3-1.6-4.7c-0.3-1.7-0.5-3.4-0.5-5.3c0-3,0.4-5.7,1.3-8.1c0.9-2.4,2.1-4.4,3.8-6.1s3.5-3,5.7-3.9
			c2.2-0.9,4.5-1.3,7-1.3c3,0,5.7,0.6,8.1,1.8c2.4,1.2,4.2,2.7,5.4,4.5c1.3,1.8,1.9,3.5,1.9,5c0,0.9-0.3,1.6-0.9,2.3
			c-0.6,0.7-1.4,1-2.2,1c-1,0-1.7-0.2-2.2-0.7c-0.5-0.5-1-1.3-1.6-2.4c-1-1.9-2.1-3.2-3.5-4.2c-1.3-0.9-3-1.4-4.9-1.4
			c-3.1,0-5.6,1.2-7.4,3.5c-1.8,2.4-2.8,5.7-2.8,10.1c0,2.9,0.4,5.3,1.2,7.3c0.8,1.9,2,3.4,3.5,4.3c1.5,1,3.3,1.4,5.3,1.4
			c2.2,0,4-0.5,5.5-1.6c1.5-1.1,2.6-2.7,3.4-4.8c0.3-1,0.7-1.8,1.2-2.4c0.5-0.6,1.2-0.9,2.3-0.9c0.9,0,1.7,0.3,2.3,0.9
			C164,48.1,164.3,48.9,164.3,49.8z"/>
		<linearGradient id="SVGID_4_" gradientUnits="userSpaceOnUse" x1="184.5173" y1="67.2499" x2="184.5173" y2="9.9444">
			<stop  offset="0" style="stop-color:#004E61"/>
			<stop  offset="9.815128e-02" style="stop-color:#065163"/>
			<stop  offset="0.2446" style="stop-color:#1D5B66"/>
			<stop  offset="0.4214" style="stop-color:#366A68"/>
			<stop  offset="0.6216" style="stop-color:#568066"/>
			<stop  offset="0.8388" style="stop-color:#82A059"/>
			<stop  offset="1" style="stop-color:#A9BC3C"/>
		</linearGradient>
		<path class="st3" d="M176.2,28.1v13.1L191,25.7c0.7-0.7,1.3-1.3,1.8-1.7c0.5-0.4,1.2-0.5,2-0.5c1.1,0,2,0.3,2.6,1
			c0.7,0.6,1,1.4,1,2.3c0,1.1-0.6,2.2-1.7,3.3l-9.2,8.7l10.6,15.2c0.7,1.1,1.3,2,1.7,2.8c0.4,0.8,0.6,1.6,0.6,2.3
			c0,0.8-0.3,1.6-1,2.2c-0.7,0.6-1.5,0.9-2.7,0.9c-1.1,0-1.9-0.2-2.6-0.7c-0.7-0.5-1.2-1.1-1.7-1.8s-0.9-1.4-1.2-2l-9-13.8l-6.2,5.9
			v7.7c0,1.6-0.4,2.7-1.1,3.5c-0.7,0.8-1.6,1.1-2.8,1.1c-0.6,0-1.3-0.2-1.9-0.5c-0.6-0.3-1.1-0.8-1.4-1.4c-0.2-0.5-0.4-1-0.4-1.7
			c-0.1-0.6-0.1-1.5-0.1-2.7V28.1c0-1.5,0.3-2.7,1-3.4c0.7-0.8,1.6-1.1,2.7-1.1c1.1,0,2.1,0.4,2.8,1.1
			C175.8,25.4,176.2,26.6,176.2,28.1z"/>
		<linearGradient id="SVGID_5_" gradientUnits="userSpaceOnUse" x1="227.9759" y1="67.2499" x2="227.9759" y2="9.9444">
			<stop  offset="0" style="stop-color:#004E61"/>
			<stop  offset="9.815128e-02" style="stop-color:#065163"/>
			<stop  offset="0.2446" style="stop-color:#1D5B66"/>
			<stop  offset="0.4214" style="stop-color:#366A68"/>
			<stop  offset="0.6216" style="stop-color:#568066"/>
			<stop  offset="0.8388" style="stop-color:#82A059"/>
			<stop  offset="1" style="stop-color:#A9BC3C"/>
		</linearGradient>
		<path class="st4" d="M237.5,30h-14.9v9.6H235c1.2,0,2,0.3,2.6,0.8s0.9,1.2,0.9,2.1c0,0.9-0.3,1.6-0.9,2.1
			c-0.6,0.5-1.4,0.8-2.6,0.8h-12.5v12.3c0,1.6-0.4,2.7-1.1,3.5c-0.7,0.8-1.6,1.1-2.7,1.1c-1.1,0-2-0.4-2.7-1.1
			c-0.7-0.8-1.1-1.9-1.1-3.5V28.8c0-1.1,0.2-2,0.5-2.7c0.3-0.7,0.8-1.2,1.5-1.5c0.7-0.3,1.6-0.5,2.6-0.5h17.9c1.2,0,2.1,0.3,2.7,0.8
			c0.6,0.5,0.9,1.2,0.9,2.1c0,0.9-0.3,1.6-0.9,2.1C239.6,29.8,238.7,30,237.5,30z"/>
		<linearGradient id="SVGID_6_" gradientUnits="userSpaceOnUse" x1="248.1546" y1="67.2499" x2="248.1546" y2="9.9444">
			<stop  offset="0" style="stop-color:#004E61"/>
			<stop  offset="9.815128e-02" style="stop-color:#065163"/>
			<stop  offset="0.2446" style="stop-color:#1D5B66"/>
			<stop  offset="0.4214" style="stop-color:#366A68"/>
			<stop  offset="0.6216" style="stop-color:#568066"/>
			<stop  offset="0.8388" style="stop-color:#82A059"/>
			<stop  offset="1" style="stop-color:#A9BC3C"/>
		</linearGradient>
		<path class="st5" d="M244.4,57.6V28.1c0-1.5,0.3-2.7,1-3.4c0.7-0.8,1.6-1.1,2.7-1.1c1.1,0,2.1,0.4,2.8,1.1
			c0.7,0.8,1.1,1.9,1.1,3.5v29.5c0,1.5-0.4,2.7-1.1,3.5c-0.7,0.8-1.6,1.1-2.8,1.1c-1.1,0-2-0.4-2.7-1.2
			C244.7,60.3,244.4,59.2,244.4,57.6z"/>
		<linearGradient id="SVGID_7_" gradientUnits="userSpaceOnUse" x1="273.5803" y1="67.2499" x2="273.5803" y2="9.9444">
			<stop  offset="0" style="stop-color:#004E61"/>
			<stop  offset="9.815128e-02" style="stop-color:#065163"/>
			<stop  offset="0.2446" style="stop-color:#1D5B66"/>
			<stop  offset="0.4214" style="stop-color:#366A68"/>
			<stop  offset="0.6216" style="stop-color:#568066"/>
			<stop  offset="0.8388" style="stop-color:#82A059"/>
			<stop  offset="1" style="stop-color:#A9BC3C"/>
		</linearGradient>
		<path class="st6" d="M267.7,28.1l14.6,22.1V27.9c0-1.4,0.3-2.5,0.9-3.3c0.6-0.7,1.5-1.1,2.5-1.1c1.1,0,1.9,0.4,2.6,1.1
			c0.6,0.7,0.9,1.8,0.9,3.3v29.4c0,3.3-1.4,4.9-4.1,4.9c-0.7,0-1.3-0.1-1.8-0.3c-0.5-0.2-1.1-0.5-1.5-0.9c-0.5-0.4-0.9-0.9-1.3-1.5
			c-0.4-0.6-0.8-1.2-1.2-1.7L265,36v21.9c0,1.4-0.3,2.5-1,3.2c-0.7,0.7-1.5,1.1-2.6,1.1c-1.1,0-1.9-0.4-2.6-1.1
			c-0.6-0.7-1-1.8-1-3.2V29c0-1.2,0.1-2.2,0.4-2.9c0.3-0.8,0.9-1.4,1.6-1.9c0.8-0.5,1.6-0.7,2.4-0.7c0.7,0,1.3,0.1,1.7,0.3
			c0.5,0.2,0.9,0.5,1.3,0.9c0.4,0.4,0.7,0.9,1.1,1.5C266.9,26.8,267.3,27.4,267.7,28.1z"/>
		<linearGradient id="SVGID_8_" gradientUnits="userSpaceOnUse" x1="310.9845" y1="67.2499" x2="310.9845" y2="9.9444">
			<stop  offset="0" style="stop-color:#004E61"/>
			<stop  offset="9.815128e-02" style="stop-color:#065163"/>
			<stop  offset="0.2446" style="stop-color:#1D5B66"/>
			<stop  offset="0.4214" style="stop-color:#366A68"/>
			<stop  offset="0.6216" style="stop-color:#568066"/>
			<stop  offset="0.8388" style="stop-color:#82A059"/>
			<stop  offset="1" style="stop-color:#A9BC3C"/>
		</linearGradient>
		<path class="st7" d="M299.6,24.2h9.9c2.6,0,4.8,0.2,6.6,0.7c1.8,0.5,3.5,1.4,5,2.7c3.9,3.3,5.8,8.4,5.8,15.2
			c0,2.2-0.2,4.3-0.6,6.2s-1,3.5-1.8,5c-0.8,1.5-1.9,2.8-3.1,4c-1,0.9-2.1,1.6-3.3,2.2c-1.2,0.5-2.5,0.9-3.8,1.1
			c-1.4,0.2-2.9,0.3-4.6,0.3h-9.9c-1.4,0-2.4-0.2-3.1-0.6c-0.7-0.4-1.2-1-1.4-1.8c-0.2-0.8-0.3-1.7-0.3-2.9V28.8
			c0-1.6,0.4-2.8,1.1-3.5S298,24.2,299.6,24.2z M302.6,30.2v25.4h5.7c1.3,0,2.2,0,3-0.1c0.7-0.1,1.5-0.2,2.2-0.5
			c0.8-0.3,1.4-0.7,2-1.1c2.5-2.1,3.8-5.8,3.8-11.1c0-3.7-0.6-6.5-1.7-8.3c-1.1-1.8-2.5-3-4.1-3.5c-1.6-0.5-3.6-0.8-5.9-0.8H302.6z"
			/>
		<linearGradient id="SVGID_9_" gradientUnits="userSpaceOnUse" x1="345.4644" y1="67.2499" x2="345.4644" y2="9.9444">
			<stop  offset="0" style="stop-color:#004E61"/>
			<stop  offset="9.815128e-02" style="stop-color:#065163"/>
			<stop  offset="0.2446" style="stop-color:#1D5B66"/>
			<stop  offset="0.4214" style="stop-color:#366A68"/>
			<stop  offset="0.6216" style="stop-color:#568066"/>
			<stop  offset="0.8388" style="stop-color:#82A059"/>
			<stop  offset="1" style="stop-color:#A9BC3C"/>
		</linearGradient>
		<path class="st8" d="M355.7,30h-17.1v9.2h15.7c1.2,0,2,0.3,2.6,0.8c0.6,0.5,0.9,1.2,0.9,2.1s-0.3,1.5-0.8,2.1
			c-0.6,0.5-1.4,0.8-2.6,0.8h-15.7v10.7h17.7c1.2,0,2.1,0.3,2.7,0.8c0.6,0.6,0.9,1.3,0.9,2.2c0,0.9-0.3,1.6-0.9,2.2
			c-0.6,0.6-1.5,0.8-2.7,0.8h-20.6c-1.7,0-2.8-0.4-3.6-1.1c-0.7-0.7-1.1-1.9-1.1-3.5V28.8c0-1.1,0.2-2,0.5-2.7
			c0.3-0.7,0.8-1.2,1.5-1.5c0.7-0.3,1.6-0.5,2.6-0.5h20c1.2,0,2.1,0.3,2.7,0.8c0.6,0.5,0.9,1.2,0.9,2.1c0,0.9-0.3,1.6-0.9,2.1
			C357.8,29.8,356.9,30,355.7,30z"/>
		<linearGradient id="SVGID_10_" gradientUnits="userSpaceOnUse" x1="378.8336" y1="67.2499" x2="378.8336" y2="9.9444">
			<stop  offset="0" style="stop-color:#004E61"/>
			<stop  offset="9.815128e-02" style="stop-color:#065163"/>
			<stop  offset="0.2446" style="stop-color:#1D5B66"/>
			<stop  offset="0.4214" style="stop-color:#366A68"/>
			<stop  offset="0.6216" style="stop-color:#568066"/>
			<stop  offset="0.8388" style="stop-color:#82A059"/>
			<stop  offset="1" style="stop-color:#A9BC3C"/>
		</linearGradient>
		<path class="st9" d="M373.5,45.6h-2.7v12c0,1.6-0.3,2.8-1,3.5c-0.7,0.7-1.6,1.1-2.7,1.1c-1.2,0-2.1-0.4-2.8-1.2
			c-0.7-0.8-1-1.9-1-3.4V28.8c0-1.6,0.4-2.8,1.1-3.5s1.9-1.1,3.5-1.1h12.3c1.7,0,3.2,0.1,4.4,0.2c1.2,0.1,2.3,0.4,3.3,0.9
			c1.2,0.5,2.2,1.2,3.1,2.1c0.9,0.9,1.6,2,2.1,3.2c0.5,1.2,0.7,2.5,0.7,3.9c0,2.8-0.8,5-2.4,6.7c-1.6,1.7-4,2.9-7.2,3.5
			c1.3,0.7,2.6,1.8,3.9,3.2c1.2,1.4,2.3,2.9,3.3,4.5s1.7,3,2.2,4.3c0.5,1.3,0.8,2.1,0.8,2.6c0,0.5-0.2,1-0.5,1.5
			c-0.3,0.5-0.7,0.9-1.3,1.1c-0.5,0.3-1.2,0.4-1.9,0.4c-0.9,0-1.6-0.2-2.1-0.6c-0.6-0.4-1.1-0.9-1.5-1.5c-0.4-0.6-1-1.5-1.7-2.7
			l-3-5.1c-1.1-1.9-2.1-3.3-2.9-4.2c-0.9-1-1.7-1.6-2.6-2C376,45.8,374.8,45.6,373.5,45.6z M377.8,29.9h-7v10.3h6.8
			c1.8,0,3.4-0.2,4.6-0.5c1.2-0.3,2.2-0.9,2.8-1.6c0.7-0.8,1-1.8,1-3.1c0-1-0.3-2-0.8-2.7c-0.5-0.8-1.3-1.4-2.2-1.8
			C382.2,30.1,380.4,29.9,377.8,29.9z"/>
	</g>
	<g>
		<g>
			<g>
				<g>
					<linearGradient id="SVGID_11_" gradientUnits="userSpaceOnUse" x1="83.8413" y1="82.0902" x2="18.7363" y2="16.9852">
						<stop  offset="0" style="stop-color:#004E61"/>
						<stop  offset="9.815128e-02" style="stop-color:#065163"/>
						<stop  offset="0.2446" style="stop-color:#1D5B66"/>
						<stop  offset="0.4214" style="stop-color:#366A68"/>
						<stop  offset="0.6216" style="stop-color:#568066"/>
						<stop  offset="0.8388" style="stop-color:#82A059"/>
						<stop  offset="1" style="stop-color:#A9BC3C"/>
					</linearGradient>
					<path class="st10" d="M56.6,63c-16.3,10.7-34.8,3.5-42.6-8C5.9,43.1,7.2,26.6,17.5,16c10.1-10.4,27-12,39.2-3.7
						c7,4.8,11.3,11.5,12.8,19.8c1.5,8.3-0.1,16-5,23c3.8,3.9,7.6,7.7,11.4,11.5c1.1,1.2,2.3,2.3,3.4,3.5c2.3,2.5,2.2,5.8-0.1,8
						c-2.3,2.2-5.5,2.1-8-0.3c-4.7-4.7-9.3-9.4-14-14C57.1,63.5,56.9,63.3,56.6,63z M17.1,31.7C13,47.9,26.3,62.4,42.4,60.4
						c9.7-1.2,17.7-8.8,19.6-18.3c3.3-16.8-12.3-31.5-29.3-26.5C25,17.9,19,24.1,17.1,31.7z"/>
				</g>
			</g>
			<linearGradient id="SVGID_12_" gradientUnits="userSpaceOnUse" x1="27.3729" y1="24.0896" x2="27.3729" y2="24.0896">
				<stop  offset="0" style="stop-color:#004E61"/>
				<stop  offset="9.815128e-02" style="stop-color:#065163"/>
				<stop  offset="0.2446" style="stop-color:#1D5B66"/>
				<stop  offset="0.4214" style="stop-color:#366A68"/>
				<stop  offset="0.6216" style="stop-color:#568066"/>
				<stop  offset="0.8388" style="stop-color:#82A059"/>
				<stop  offset="1" style="stop-color:#A9BC3C"/>
			</linearGradient>
			<path class="st11" d="M27.4,24.1"/>
			<linearGradient id="SVGID_13_" gradientUnits="userSpaceOnUse" x1="84.1677" y1="81.7638" x2="19.0627" y2="16.6588">
				<stop  offset="0" style="stop-color:#004E61"/>
				<stop  offset="9.815128e-02" style="stop-color:#065163"/>
				<stop  offset="0.2446" style="stop-color:#1D5B66"/>
				<stop  offset="0.4214" style="stop-color:#366A68"/>
				<stop  offset="0.6216" style="stop-color:#568066"/>
				<stop  offset="0.8388" style="stop-color:#82A059"/>
				<stop  offset="1" style="stop-color:#A9BC3C"/>
			</linearGradient>
			<line class="st12" x1="25.7" y1="24.1" x2="27.4" y2="24.1"/>
			<g>
				<g>
					<linearGradient id="SVGID_14_" gradientUnits="userSpaceOnUse" x1="88.534" y1="77.3975" x2="23.429" y2="12.2925">
						<stop  offset="0" style="stop-color:#004E61"/>
						<stop  offset="9.815128e-02" style="stop-color:#065163"/>
						<stop  offset="0.2446" style="stop-color:#1D5B66"/>
						<stop  offset="0.4214" style="stop-color:#366A68"/>
						<stop  offset="0.6216" style="stop-color:#568066"/>
						<stop  offset="0.8388" style="stop-color:#82A059"/>
						<stop  offset="1" style="stop-color:#A9BC3C"/>
					</linearGradient>
					<path class="st13" d="M48.9,24.9c-0.7-0.6-1.6-0.8-3-0.8l-17,0.4l0.1,6.4l17-0.4c1.3,0,2.3-0.3,2.9-0.9
						c0.6-0.6,0.9-1.4,0.9-2.3C49.9,26.2,49.6,25.5,48.9,24.9z"/>
					<linearGradient id="SVGID_15_" gradientUnits="userSpaceOnUse" x1="81.7879" y1="84.1436" x2="16.6829" y2="19.0386">
						<stop  offset="0" style="stop-color:#004E61"/>
						<stop  offset="9.815128e-02" style="stop-color:#065163"/>
						<stop  offset="0.2446" style="stop-color:#1D5B66"/>
						<stop  offset="0.4214" style="stop-color:#366A68"/>
						<stop  offset="0.6216" style="stop-color:#568066"/>
						<stop  offset="0.8388" style="stop-color:#82A059"/>
						<stop  offset="1" style="stop-color:#A9BC3C"/>
					</linearGradient>
					<path class="st14" d="M43.5,36.6l-14.3,0.3l0.1,6.2l14.3-0.3c1.2,0,2.2-0.3,2.8-0.9c0.6-0.6,0.9-1.3,0.9-2.3
						c0-0.9-0.3-1.7-1-2.2C45.7,36.8,44.8,36.5,43.5,36.6z"/>
				</g>
				<linearGradient id="SVGID_16_" gradientUnits="userSpaceOnUse" x1="71.6779" y1="94.2536" x2="6.5696" y2="29.1453">
					<stop  offset="0" style="stop-color:#004E61"/>
					<stop  offset="9.815128e-02" style="stop-color:#065163"/>
					<stop  offset="0.2446" style="stop-color:#1D5B66"/>
					<stop  offset="0.4214" style="stop-color:#366A68"/>
					<stop  offset="0.6216" style="stop-color:#568066"/>
					<stop  offset="0.8388" style="stop-color:#82A059"/>
					<stop  offset="1" style="stop-color:#A9BC3C"/>
				</linearGradient>
				<polyline class="st15" points="29.3,43.1 13.9,51.4 12.4,41.4 29.2,36.9 				"/>
				<linearGradient id="SVGID_17_" gradientUnits="userSpaceOnUse" x1="77.7599" y1="88.1716" x2="12.6549" y2="23.0666">
					<stop  offset="0" style="stop-color:#004E61"/>
					<stop  offset="9.815128e-02" style="stop-color:#065163"/>
					<stop  offset="0.2446" style="stop-color:#1D5B66"/>
					<stop  offset="0.4214" style="stop-color:#366A68"/>
					<stop  offset="0.6216" style="stop-color:#568066"/>
					<stop  offset="0.8388" style="stop-color:#82A059"/>
					<stop  offset="1" style="stop-color:#A9BC3C"/>
				</linearGradient>
				<polyline class="st16" points="29.1,30.8 13.6,38.9 12.2,28.9 28.9,24.4 				"/>
			</g>
		</g>
	</g>
</g>
</svg>
